<svg xmlns="http://www.w3.org/2000/svg" viewBox="0 0 21 21" fill="currentColor"><path d="M12.5-6A10.512,10.512,0,0,1,2-16.5,10.512,10.512,0,0,1,12.5-27,10.512,10.512,0,0,1,23-16.5,10.512,10.512,0,0,1,12.5-6Zm-1-7.015v1.633h1.685v-1.633Zm1.14-7.656h.085a1.6,1.6,0,0,1,1.684,1.531c.068.643-.4,1.313-1.378,1.99a2.74,2.74,0,0,0-1.327,2.4v.562h1.327v-.459a2.064,2.064,0,0,1,1.174-1.838c1.286-.812,1.9-1.757,1.837-2.807-.17-1.692-1.2-2.6-3.062-2.7q-.1,0-.207,0A3.484,3.484,0,0,0,9-18.985l1.48.357C10.777-19.983,11.5-20.671,12.64-20.671Z" transform="translate(-2 27)"></path></svg>